{
  "source": "C:\\Users\\Peter\\Desktop\\stuff\\MIUN\\quantitative_research\\video_compression\\videos\\BVI-HD\\BVI-HD_CDVL_videos\\ORIG\\Toys_1920x1080_30fps.mp4",
  "output": "C:\\Users\\Peter\\Desktop\\stuff\\MIUN\\quantitative_research\\video_compression\\compressed_videos\\BVI-HD\\hevc\\1.5\\Toys_1920x1080_30fps_hevc.mp4",
  "codec": "hevc",
  "ok": "Input #0, mov,mp4,m4a,3gp,3g2,mj2, from 'C:\\Users\\Peter\\Desktop\\stuff\\MIUN\\quantitative_research\\video_compression\\videos\\BVI-HD\\BVI-HD_CDVL_videos\\ORIG\\Toys_1920x1080_30fps.mp4':\n  Metadata:\n    major_brand     : isom\n    minor_version   : 512\n    compatible_brands: isomiso2avc1mp41\n    encoder         : Lavf54.28.101\n  Duration: 00:00:05.00, start: 0.000000, bitrate: 270887 kb/s\n  Stream #0:0[0x1](und): Video: h264 (High 4:4:4 Predictive) (avc1 / 0x31637661), yuv420p(progressive), 1920x1080, 270883 kb/s, 30 fps, 30 tbr, 30 tbn (default)\n    Metadata:\n      handler_name    : VideoHandler\n      vendor_id       : [0][0][0][0]\n[out#0/mp4 @ 00000189527cab00] Codec AVOption b:a (set bitrate (in bits/s)) has not been used for any stream. The most likely reason is either wrong type (e.g. a video option with no video streams) or that it is a private option of some decoder which was not actually used for any stream.\nStream mapping:\n  Stream #0:0 -> #0:0 (h264 (native) -> hevc (libx265))\nPress [q] to stop, [?] for help\n[libx265 @ 0000018953280bc0] Unknown option: \"aq-mode.\nx265 [info]: HEVC encoder version 4.1+190-8f11c33ac\nx265 [info]: build info [Windows][GCC 15.1.0][64 bit] 10bit\nx265 [info]: using cpu capabilities: MMX2 SSE2Fast LZCNT SSSE3 SSE4.2 AVX FMA3 BMI2 AVX2\nx265 [info]: Main 10 profile, Level-4 (Main tier)\nx265 [info]: Thread pool created using 12 threads\nx265 [info]: Slices                              : 1\nx265 [info]: frame threads / pool features       : 3 / wpp(17 rows)\nx265 [info]: Coding QT: max CU size, min CU size : 64 / 8\nx265 [info]: Residual QT: max TU size, max depth : 32 / 1 inter / 1 intra\nx265 [info]: ME / range / subpel / merge         : star / 57 / 3 / 3\nx265 [info]: Keyframe min / max / scenecut / bias  : 25 / 250 / 40 / 5.00 \nx265 [info]: Lookahead / bframes / badapt        : 25 / 4 / 2\nx265 [info]: b-pyramid / weightp / weightb       : 1 / 1 / 0\nx265 [info]: References / ref-limit  cu / depth  : 4 / on / on\nx265 [info]: AQ: mode / str / qg-size / cu-tree  : 2 / 1.0 / 32 / 1\nx265 [info]: Rate Control / qCompress            : ABR-1500 kbps / 0.60\nx265 [info]: VBV/HRD buffer / max-rate / init    : 1500 / 1500 / 0.750\nx265 [info]: tools: rect limit-modes rd=4 psy-rd=2.00 rdoq=2 psy-rdoq=1.00\nx265 [info]: tools: rskip mode=1 signhide tmvp strong-intra-smoothing lslices=4\nx265 [info]: tools: deblock sao dhdr10-info\nOutput #0, mp4, to 'C:\\Users\\Peter\\Desktop\\stuff\\MIUN\\quantitative_research\\video_compression\\compressed_videos\\BVI-HD\\hevc\\1.5\\Toys_1920x1080_30fps_hevc.mp4':\n  Metadata:\n    major_brand     : isom\n    minor_version   : 512\n    compatible_brands: isomiso2avc1mp41\n    encoder         : Lavf62.3.100\n  Stream #0:0(und): Video: hevc (hev1 / 0x31766568), yuv420p10le(tv, progressive), 1920x1080, q=2-31, 1500 kb/s, 30 fps, 15360 tbn (default)\n    Metadata:\n      encoder         : Lavc62.11.100 libx265\n      handler_name    : VideoHandler\n      vendor_id       : [0][0][0][0]\n    Side data:\n      cpb: bitrate max/min/avg: 1500000/0/1500000 buffer size: 1500000 vbv_delay: N/A\nframe=    0 fps=0.0 q=0.0 size=       0KiB time=N/A bitrate=N/A speed=N/A elapsed=0:00:01.03    \nframe=    0 fps=0.0 q=0.0 size=       0KiB time=N/A bitrate=N/A speed=N/A elapsed=0:00:01.59    \nframe=    0 fps=0.0 q=0.0 size=       0KiB time=N/A bitrate=N/A speed=N/A elapsed=0:00:02.19    \nframe=    0 fps=0.0 q=0.0 size=       0KiB time=N/A bitrate=N/A speed=N/A elapsed=0:00:02.73    \nframe=    0 fps=0.0 q=0.0 size=       0KiB time=N/A bitrate=N/A speed=N/A elapsed=0:00:03.25    \nframe=    0 fps=0.0 q=0.0 size=       0KiB time=N/A bitrate=N/A speed=N/A elapsed=0:00:03.78    \nframe=    0 fps=0.0 q=0.0 size=       0KiB time=N/A bitrate=N/A speed=N/A elapsed=0:00:04.30    \nframe=    0 fps=0.0 q=0.0 size=       0KiB time=N/A bitrate=N/A speed=N/A elapsed=0:00:04.88    \nframe=    0 fps=0.0 q=0.0 size=       0KiB time=N/A bitrate=N/A speed=N/A elapsed=0:00:05.39    \nframe=    0 fps=0.0 q=0.0 size=       0KiB time=N/A bitrate=N/A speed=N/A elapsed=0:00:05.93    \nframe=    0 fps=0.0 q=0.0 size=       0KiB time=N/A bitrate=N/A speed=N/A elapsed=0:00:06.45    \nframe=    0 fps=0.0 q=0.0 size=       0KiB time=N/A bitrate=N/A speed=N/A elapsed=0:00:06.96    \nframe=    0 fps=0.0 q=0.0 size=       0KiB time=N/A bitrate=N/A speed=N/A elapsed=0:00:07.49    \nframe=    0 fps=0.0 q=0.0 size=       0KiB time=N/A bitrate=N/A speed=N/A elapsed=0:00:08.04    \nframe=    0 fps=0.0 q=0.0 size=       0KiB time=N/A bitrate=N/A speed=N/A elapsed=0:00:08.56    \nframe=    0 fps=0.0 q=0.0 size=       0KiB time=N/A bitrate=N/A speed=N/A elapsed=0:00:09.10    \nframe=    0 fps=0.0 q=0.0 size=       0KiB time=N/A bitrate=N/A speed=N/A elapsed=0:00:09.63    \nframe=    0 fps=0.0 q=0.0 size=       0KiB time=N/A bitrate=N/A speed=N/A elapsed=0:00:10.15    \nframe=    1 fps=0.1 q=38.8 size=       0KiB time=-00:00:00.03 bitrate=N/A speed=N/A elapsed=0:00:10.69    \nframe=    1 fps=0.1 q=38.8 size=       0KiB time=-00:00:00.03 bitrate=N/A speed=N/A elapsed=0:00:11.21    \nframe=    2 fps=0.2 q=45.2 size=       0KiB time=00:00:00.00 bitrate=N/A speed=   0x elapsed=0:00:11.73    \nframe=    2 fps=0.2 q=45.2 size=       0KiB time=00:00:00.00 bitrate=N/A speed=   0x elapsed=0:00:12.23    \nframe=    2 fps=0.2 q=45.2 size=       0KiB time=00:00:00.00 bitrate=N/A speed=   0x elapsed=0:00:12.75    \nframe=    3 fps=0.2 q=50.9 size=       0KiB time=00:00:00.03 bitrate=  10.6kbits/s speed=0.00251x elapsed=0:00:13.28    \nframe=    4 fps=0.3 q=51.0 size=       0KiB time=00:00:00.06 bitrate=   5.3kbits/s speed=0.00483x elapsed=0:00:13.79    \nframe=    4 fps=0.3 q=51.0 size=       0KiB time=00:00:00.06 bitrate=   5.3kbits/s speed=0.00466x elapsed=0:00:14.30    \nframe=    4 fps=0.3 q=51.0 size=       0KiB time=00:00:00.06 bitrate=   5.3kbits/s speed=0.00449x elapsed=0:00:14.84    \nframe=    5 fps=0.3 q=49.0 size=       0KiB time=00:00:00.10 bitrate=   3.5kbits/s speed=0.0065x elapsed=0:00:15.38    \nframe=    6 fps=0.4 q=42.7 size=       0KiB time=00:00:00.13 bitrate=   2.6kbits/s speed=0.00837x elapsed=0:00:15.93    \nframe=    7 fps=0.4 q=44.9 size=       0KiB time=00:00:00.16 bitrate=   2.1kbits/s speed=0.0101x elapsed=0:00:16.45    \nframe=    7 fps=0.4 q=44.9 size=       0KiB time=00:00:00.16 bitrate=   2.1kbits/s speed=0.00982x elapsed=0:00:16.97    \nframe=    7 fps=0.4 q=44.9 size=       0KiB time=00:00:00.16 bitrate=   2.1kbits/s speed=0.00951x elapsed=0:00:17.52    \nframe=    7 fps=0.4 q=44.9 size=       0KiB time=00:00:00.16 bitrate=   2.1kbits/s speed=0.00922x elapsed=0:00:18.07    \nframe=    7 fps=0.4 q=44.9 size=       0KiB time=00:00:00.16 bitrate=   2.1kbits/s speed=0.00896x elapsed=0:00:18.60    \nframe=    8 fps=0.4 q=44.9 size=       0KiB time=00:00:00.20 bitrate=   1.8kbits/s speed=0.0104x elapsed=0:00:19.14    \nframe=    8 fps=0.4 q=44.9 size=       0KiB time=00:00:00.20 bitrate=   1.8kbits/s speed=0.0102x elapsed=0:00:19.67    \nframe=    9 fps=0.4 q=46.0 size=       0KiB time=00:00:00.23 bitrate=   1.5kbits/s speed=0.0116x elapsed=0:00:20.19    \nframe=    9 fps=0.4 q=46.0 size=       0KiB time=00:00:00.23 bitrate=   1.5kbits/s speed=0.0113x elapsed=0:00:20.73    \nframe=   10 fps=0.5 q=40.9 size=       0KiB time=00:00:00.26 bitrate=   1.3kbits/s speed=0.0125x elapsed=0:00:21.25    \nframe=   11 fps=0.5 q=44.0 size=       0KiB time=00:00:00.30 bitrate=   1.2kbits/s speed=0.0138x elapsed=0:00:21.77    \nframe=   11 fps=0.5 q=44.0 size=       0KiB time=00:00:00.30 bitrate=   1.2kbits/s speed=0.0135x elapsed=0:00:22.30    \nframe=   11 fps=0.5 q=44.0 size=       0KiB time=00:00:00.30 bitrate=   1.2kbits/s speed=0.0131x elapsed=0:00:22.81    \nframe=   11 fps=0.5 q=44.0 size=       0KiB time=00:00:00.30 bitrate=   1.2kbits/s speed=0.0128x elapsed=0:00:23.36    \nframe=   11 fps=0.5 q=44.0 size=       0KiB time=00:00:00.30 bitrate=   1.2kbits/s speed=0.0125x elapsed=0:00:23.90    \nframe=   12 fps=0.5 q=44.9 size=       0KiB time=00:00:00.33 bitrate=   1.1kbits/s speed=0.0136x elapsed=0:00:24.42    \nframe=   12 fps=0.5 q=44.9 size=       0KiB time=00:00:00.33 bitrate=   1.1kbits/s speed=0.0134x elapsed=0:00:24.94    \nframe=   12 fps=0.5 q=44.9 size=       0KiB time=00:00:00.33 bitrate=   1.1kbits/s speed=0.0131x elapsed=0:00:25.46    \nframe=   13 fps=0.5 q=45.9 size=       0KiB time=00:00:00.36 bitrate=   1.0kbits/s speed=0.0141x elapsed=0:00:25.97    \nframe=   13 fps=0.5 q=45.9 size=       0KiB time=00:00:00.36 bitrate=   1.0kbits/s speed=0.0138x elapsed=0:00:26.49    \nframe=   14 fps=0.5 q=39.6 size=       0KiB time=00:00:00.40 bitrate=   0.9kbits/s speed=0.0148x elapsed=0:00:27.03    \nframe=   14 fps=0.5 q=39.6 size=       0KiB time=00:00:00.40 bitrate=   0.9kbits/s speed=0.0145x elapsed=0:00:27.55    \nframe=   14 fps=0.5 q=39.6 size=       0KiB time=00:00:00.40 bitrate=   0.9kbits/s speed=0.0142x elapsed=0:00:28.07    \nframe=   15 fps=0.5 q=44.9 size=       0KiB time=00:00:00.43 bitrate=   0.8kbits/s speed=0.0151x elapsed=0:00:28.61    \nframe=   15 fps=0.5 q=44.9 size=       0KiB time=00:00:00.43 bitrate=   0.8kbits/s speed=0.0149x elapsed=0:00:29.13    \nframe=   15 fps=0.5 q=44.9 size=       0KiB time=00:00:00.43 bitrate=   0.8kbits/s speed=0.0146x elapsed=0:00:29.69    \nframe=   15 fps=0.5 q=44.9 size=       0KiB time=00:00:00.43 bitrate=   0.8kbits/s speed=0.0143x elapsed=0:00:30.22    \nframe=   16 fps=0.5 q=46.0 size=       0KiB time=00:00:00.46 bitrate=   0.8kbits/s speed=0.0152x elapsed=0:00:30.75    \nframe=   16 fps=0.5 q=46.0 size=       0KiB time=00:00:00.46 bitrate=   0.8kbits/s speed=0.0149x elapsed=0:00:31.30    \nframe=   17 fps=0.5 q=46.0 size=       0KiB time=00:00:00.50 bitrate=   0.7kbits/s speed=0.0157x elapsed=0:00:31.81    \nframe=   17 fps=0.5 q=46.0 size=       0KiB time=00:00:00.50 bitrate=   0.7kbits/s speed=0.0155x elapsed=0:00:32.33    \nframe=   18 fps=0.5 q=39.2 size=       0KiB time=00:00:00.53 bitrate=   0.7kbits/s speed=0.0162x elapsed=0:00:32.85    \nframe=   18 fps=0.5 q=39.2 size=       0KiB time=00:00:00.53 bitrate=   0.7kbits/s speed=0.016x elapsed=0:00:33.37    \nframe=   18 fps=0.5 q=39.2 size=       0KiB time=00:00:00.53 bitrate=   0.7kbits/s speed=0.0157x elapsed=0:00:33.90    \nframe=   18 fps=0.5 q=39.2 size=       0KiB time=00:00:00.53 bitrate=   0.7kbits/s speed=0.0155x elapsed=0:00:34.41    \nframe=   19 fps=0.5 q=44.3 size=       0KiB time=00:00:00.56 bitrate=   0.6kbits/s speed=0.0162x elapsed=0:00:34.94    \nframe=   20 fps=0.6 q=46.1 size=       0KiB time=00:00:00.60 bitrate=   0.6kbits/s speed=0.0169x elapsed=0:00:35.46    \nframe=   21 fps=0.6 q=39.5 size=       0KiB time=00:00:00.63 bitrate=   0.6kbits/s speed=0.0176x elapsed=0:00:35.97    \nframe=   21 fps=0.6 q=39.5 size=       0KiB time=00:00:00.63 bitrate=   0.6kbits/s speed=0.0174x elapsed=0:00:36.48    \nframe=   22 fps=0.6 q=43.7 size=       0KiB time=00:00:00.66 bitrate=   0.5kbits/s speed=0.018x elapsed=0:00:37.00    \nframe=   22 fps=0.6 q=43.7 size=       0KiB time=00:00:00.66 bitrate=   0.5kbits/s speed=0.0178x elapsed=0:00:37.53    \nframe=   22 fps=0.6 q=43.7 size=       0KiB time=00:00:00.66 bitrate=   0.5kbits/s speed=0.0175x elapsed=0:00:38.03    \nframe=   22 fps=0.6 q=43.7 size=       0KiB time=00:00:00.66 bitrate=   0.5kbits/s speed=0.0173x elapsed=0:00:38.55    \nframe=   22 fps=0.6 q=43.7 size=       0KiB time=00:00:00.66 bitrate=   0.5kbits/s speed=0.0171x elapsed=0:00:39.06    \nframe=   23 fps=0.6 q=45.0 size=       0KiB time=00:00:00.70 bitrate=   0.5kbits/s speed=0.0177x elapsed=0:00:39.58    \nframe=   24 fps=0.6 q=44.9 size=       0KiB time=00:00:00.73 bitrate=   0.5kbits/s speed=0.0183x elapsed=0:00:40.09    \nframe=   25 fps=0.6 q=39.2 size=       0KiB time=00:00:00.76 bitrate=   0.5kbits/s speed=0.0189x elapsed=0:00:40.63    \nframe=   26 fps=0.6 q=43.7 size=       0KiB time=00:00:00.80 bitrate=   0.4kbits/s speed=0.0194x elapsed=0:00:41.15    \nframe=   26 fps=0.6 q=43.7 size=       0KiB time=00:00:00.80 bitrate=   0.4kbits/s speed=0.0192x elapsed=0:00:41.67    \nframe=   27 fps=0.6 q=45.0 size=       0KiB time=00:00:00.83 bitrate=   0.4kbits/s speed=0.0197x elapsed=0:00:42.19    \nframe=   27 fps=0.6 q=45.0 size=       0KiB time=00:00:00.83 bitrate=   0.4kbits/s speed=0.0195x elapsed=0:00:42.76    \nframe=   27 fps=0.6 q=45.0 size=       0KiB time=00:00:00.83 bitrate=   0.4kbits/s speed=0.0192x elapsed=0:00:43.31    \nframe=   27 fps=0.6 q=45.0 size=       0KiB time=00:00:00.83 bitrate=   0.4kbits/s speed=0.019x elapsed=0:00:43.86    \nframe=   27 fps=0.6 q=45.0 size=       0KiB time=00:00:00.83 bitrate=   0.4kbits/s speed=0.0188x elapsed=0:00:44.40    \nframe=   28 fps=0.6 q=44.9 size=       0KiB time=00:00:00.86 bitrate=   0.4kbits/s speed=0.0193x elapsed=0:00:44.91    \nframe=   29 fps=0.6 q=44.8 size=       0KiB time=00:00:00.90 bitrate=   0.4kbits/s speed=0.0198x elapsed=0:00:45.43    \nframe=   31 fps=0.7 q=43.7 size=       0KiB time=00:00:00.96 bitrate=   0.4kbits/s speed=0.021x elapsed=0:00:45.95    \nframe=   31 fps=0.7 q=43.7 size=       0KiB time=00:00:00.96 bitrate=   0.4kbits/s speed=0.0208x elapsed=0:00:46.47    \nframe=   32 fps=0.7 q=45.1 size=       0KiB time=00:00:01.00 bitrate=   0.4kbits/s speed=0.0213x elapsed=0:00:46.98    \nframe=   32 fps=0.7 q=45.1 size=       0KiB time=00:00:01.00 bitrate=   0.4kbits/s speed=0.021x elapsed=0:00:47.50    \nframe=   33 fps=0.7 q=45.1 size=       0KiB time=00:00:01.03 bitrate=   0.3kbits/s speed=0.0215x elapsed=0:00:48.02    \nframe=   35 fps=0.7 q=43.0 size=       0KiB time=00:00:01.10 bitrate=   0.3kbits/s speed=0.0227x elapsed=0:00:48.54    \nframe=   35 fps=0.7 q=43.0 size=       0KiB time=00:00:01.10 bitrate=   0.3kbits/s speed=0.0224x elapsed=0:00:49.05    \nframe=   37 fps=0.7 q=45.0 size=       0KiB time=00:00:01.16 bitrate=   0.3kbits/s speed=0.0235x elapsed=0:00:49.57    \nframe=   38 fps=0.8 q=38.6 size=       0KiB time=00:00:01.20 bitrate=   0.3kbits/s speed=0.024x elapsed=0:00:50.08    \nframe=   39 fps=0.8 q=42.3 size=       0KiB time=00:00:01.23 bitrate=   0.3kbits/s speed=0.0244x elapsed=0:00:50.60    \nframe=   39 fps=0.8 q=42.3 size=       0KiB time=00:00:01.23 bitrate=   0.3kbits/s speed=0.0241x elapsed=0:00:51.11    \nframe=   40 fps=0.8 q=44.4 size=       0KiB time=00:00:01.26 bitrate=   0.3kbits/s speed=0.0245x elapsed=0:00:51.62    \nframe=   40 fps=0.8 q=44.4 size=       0KiB time=00:00:01.26 bitrate=   0.3kbits/s speed=0.0243x elapsed=0:00:52.17    \nframe=   41 fps=0.8 q=44.3 size=       0KiB time=00:00:01.30 bitrate=   0.3kbits/s speed=0.0247x elapsed=0:00:52.73    \nframe=   42 fps=0.8 q=38.5 size=       0KiB time=00:00:01.33 bitrate=   0.3kbits/s speed=0.025x elapsed=0:00:53.27    \nframe=   42 fps=0.8 q=38.5 size=       0KiB time=00:00:01.33 bitrate=   0.3kbits/s speed=0.0248x elapsed=0:00:53.80    \nframe=   43 fps=0.8 q=42.5 size=       0KiB time=00:00:01.36 bitrate=   0.3kbits/s speed=0.0252x elapsed=0:00:54.33    \nframe=   44 fps=0.8 q=44.7 size=       0KiB time=00:00:01.40 bitrate=   0.3kbits/s speed=0.0255x elapsed=0:00:54.88    \nframe=   44 fps=0.8 q=44.7 size=       0KiB time=00:00:01.40 bitrate=   0.3kbits/s speed=0.0253x elapsed=0:00:55.43    \nframe=   45 fps=0.8 q=38.5 size=       0KiB time=00:00:01.43 bitrate=   0.2kbits/s speed=0.0256x elapsed=0:00:55.95    \nframe=   46 fps=0.8 q=41.8 size=     256KiB time=00:00:01.46 bitrate=1430.1kbits/s speed=0.026x elapsed=0:00:56.47    \nframe=   46 fps=0.8 q=41.8 size=     256KiB time=00:00:01.46 bitrate=1430.1kbits/s speed=0.0257x elapsed=0:00:57.01    \nframe=   46 fps=0.8 q=41.8 size=     256KiB time=00:00:01.46 bitrate=1430.1kbits/s speed=0.0255x elapsed=0:00:57.52    \nframe=   46 fps=0.8 q=41.8 size=     256KiB time=00:00:01.46 bitrate=1430.1kbits/s speed=0.0253x elapsed=0:00:58.03    \nframe=   46 fps=0.8 q=41.8 size=     256KiB time=00:00:01.46 bitrate=1430.1kbits/s speed=0.025x elapsed=0:00:58.55    \nframe=   46 fps=0.8 q=41.8 size=     256KiB time=00:00:01.46 bitrate=1430.1kbits/s speed=0.0248x elapsed=0:00:59.07    \nframe=   46 fps=0.8 q=41.8 size=     256KiB time=00:00:01.46 bitrate=1430.1kbits/s speed=0.0246x elapsed=0:00:59.58    \nframe=   47 fps=0.8 q=43.9 size=     256KiB time=00:00:01.50 bitrate=1398.3kbits/s speed=0.025x elapsed=0:01:00.10    \nframe=   47 fps=0.8 q=43.9 size=     256KiB time=00:00:01.50 bitrate=1398.3kbits/s speed=0.0247x elapsed=0:01:00.63    \nframe=   47 fps=0.8 q=43.9 size=     256KiB time=00:00:01.50 bitrate=1398.3kbits/s speed=0.0245x elapsed=0:01:01.14    \nframe=   48 fps=0.8 q=43.9 size=     256KiB time=00:00:01.53 bitrate=1367.9kbits/s speed=0.0249x elapsed=0:01:01.69    \nframe=   49 fps=0.8 q=38.3 size=     256KiB time=00:00:01.56 bitrate=1338.8kbits/s speed=0.0252x elapsed=0:01:02.21    \nframe=   49 fps=0.8 q=38.3 size=     256KiB time=00:00:01.56 bitrate=1338.8kbits/s speed=0.025x elapsed=0:01:02.73    \nframe=   50 fps=0.8 q=43.1 size=     256KiB time=00:00:01.60 bitrate=1310.9kbits/s speed=0.0253x elapsed=0:01:03.24    \nframe=   50 fps=0.8 q=43.1 size=     256KiB time=00:00:01.60 bitrate=1310.9kbits/s speed=0.0251x elapsed=0:01:03.76    \nframe=   51 fps=0.8 q=44.2 size=     256KiB time=00:00:01.63 bitrate=1284.2kbits/s speed=0.0254x elapsed=0:01:04.26    \nframe=   51 fps=0.8 q=44.2 size=     256KiB time=00:00:01.63 bitrate=1284.2kbits/s speed=0.0252x elapsed=0:01:04.80    \nframe=   51 fps=0.8 q=44.2 size=     256KiB time=00:00:01.63 bitrate=1284.2kbits/s speed=0.025x elapsed=0:01:05.31    \nframe=   51 fps=0.8 q=44.2 size=     256KiB time=00:00:01.63 bitrate=1284.2kbits/s speed=0.0248x elapsed=0:01:05.86    \nframe=   51 fps=0.8 q=44.2 size=     256KiB time=00:00:01.63 bitrate=1284.2kbits/s speed=0.0246x elapsed=0:01:06.38    \nframe=   52 fps=0.8 q=44.0 size=     256KiB time=00:00:01.66 bitrate=1258.5kbits/s speed=0.0249x elapsed=0:01:06.92    \nframe=   53 fps=0.8 q=43.8 size=     256KiB time=00:00:01.70 bitrate=1233.8kbits/s speed=0.0252x elapsed=0:01:07.46    \nframe=   53 fps=0.8 q=43.8 size=     256KiB time=00:00:01.70 bitrate=1233.8kbits/s speed=0.025x elapsed=0:01:07.97    \nframe=   53 fps=0.8 q=43.8 size=     256KiB time=00:00:01.70 bitrate=1233.8kbits/s speed=0.0248x elapsed=0:01:08.48    \nframe=   54 fps=0.8 q=38.7 size=     256KiB time=00:00:01.73 bitrate=1210.1kbits/s speed=0.0251x elapsed=0:01:09.00    \nframe=   55 fps=0.8 q=41.8 size=     256KiB time=00:00:01.76 bitrate=1187.3kbits/s speed=0.0254x elapsed=0:01:09.53    \nframe=   55 fps=0.8 q=41.8 size=     256KiB time=00:00:01.76 bitrate=1187.3kbits/s speed=0.0252x elapsed=0:01:10.05    \nframe=   56 fps=0.8 q=44.0 size=     256KiB time=00:00:01.80 bitrate=1165.3kbits/s speed=0.0255x elapsed=0:01:10.56    \nframe=   56 fps=0.8 q=44.0 size=     256KiB time=00:00:01.80 bitrate=1165.3kbits/s speed=0.0253x elapsed=0:01:11.08    \nframe=   56 fps=0.8 q=44.0 size=     256KiB time=00:00:01.80 bitrate=1165.3kbits/s speed=0.0251x elapsed=0:01:11.60    \nframe=   56 fps=0.8 q=44.0 size=     256KiB time=00:00:01.80 bitrate=1165.3kbits/s speed=0.0249x elapsed=0:01:12.15    \nframe=   56 fps=0.8 q=44.0 size=     256KiB time=00:00:01.80 bitrate=1165.3kbits/s speed=0.0248x elapsed=0:01:12.67    \nframe=   57 fps=0.8 q=43.6 size=     256KiB time=00:00:01.83 bitrate=1144.1kbits/s speed=0.025x elapsed=0:01:13.19    \nframe=   58 fps=0.8 q=38.3 size=     256KiB time=00:00:01.86 bitrate=1123.7kbits/s speed=0.0253x elapsed=0:01:13.71    \nframe=   59 fps=0.8 q=41.7 size=     256KiB time=00:00:01.90 bitrate=1103.9kbits/s speed=0.0256x elapsed=0:01:14.23    \nframe=   59 fps=0.8 q=41.7 size=     256KiB time=00:00:01.90 bitrate=1103.9kbits/s speed=0.0254x elapsed=0:01:14.73    \nframe=   59 fps=0.8 q=41.7 size=     256KiB time=00:00:01.90 bitrate=1103.9kbits/s speed=0.0252x elapsed=0:01:15.25    \nframe=   59 fps=0.8 q=41.7 size=     256KiB time=00:00:01.90 bitrate=1103.9kbits/s speed=0.0251x elapsed=0:01:15.77    \nframe=   60 fps=0.8 q=44.2 size=     256KiB time=00:00:01.93 bitrate=1084.9kbits/s speed=0.0253x elapsed=0:01:16.28    \nframe=   61 fps=0.8 q=44.2 size=     256KiB time=00:00:01.96 bitrate=1066.5kbits/s speed=0.0256x elapsed=0:01:16.80    \nframe=   61 fps=0.8 q=44.2 size=     256KiB time=00:00:01.96 bitrate=1066.5kbits/s speed=0.0254x elapsed=0:01:17.33    \nframe=   61 fps=0.8 q=44.2 size=     256KiB time=00:00:01.96 bitrate=1066.5kbits/s speed=0.0253x elapsed=0:01:17.84    \nframe=   61 fps=0.8 q=44.2 size=     256KiB time=00:00:01.96 bitrate=1066.5kbits/s speed=0.0251x elapsed=0:01:18.38    \nframe=   63 fps=0.8 q=41.7 size=     256KiB time=00:00:02.03 bitrate=1031.6kbits/s speed=0.0258x elapsed=0:01:18.89    \nframe=   63 fps=0.8 q=41.7 size=     256KiB time=00:00:02.03 bitrate=1031.6kbits/s speed=0.0256x elapsed=0:01:19.41    \nframe=   63 fps=0.8 q=41.7 size=     256KiB time=00:00:02.03 bitrate=1031.6kbits/s speed=0.0254x elapsed=0:01:19.93    \nframe=   63 fps=0.8 q=41.7 size=     256KiB time=00:00:02.03 bitrate=1031.6kbits/s speed=0.0253x elapsed=0:01:20.45    \nframe=   64 fps=0.8 q=44.2 size=     256KiB time=00:00:02.06 bitrate=1014.9kbits/s speed=0.0255x elapsed=0:01:20.97    \nframe=   64 fps=0.8 q=44.2 size=     256KiB time=00:00:02.06 bitrate=1014.9kbits/s speed=0.0254x elapsed=0:01:21.52    \nframe=   65 fps=0.8 q=44.3 size=     256KiB time=00:00:02.10 bitrate= 998.8kbits/s speed=0.0256x elapsed=0:01:22.07    \nframe=   65 fps=0.8 q=44.3 size=     256KiB time=00:00:02.10 bitrate= 998.8kbits/s speed=0.0254x elapsed=0:01:22.59    \nframe=   66 fps=0.8 q=38.3 size=     256KiB time=00:00:02.13 bitrate= 983.2kbits/s speed=0.0257x elapsed=0:01:23.12    \nframe=   66 fps=0.8 q=38.3 size=     256KiB time=00:00:02.13 bitrate= 983.2kbits/s speed=0.0255x elapsed=0:01:23.68    \nframe=   66 fps=0.8 q=38.3 size=     256KiB time=00:00:02.13 bitrate= 983.2kbits/s speed=0.0253x elapsed=0:01:24.22    \nframe=   67 fps=0.8 q=41.6 size=     256KiB time=00:00:02.16 bitrate= 968.1kbits/s speed=0.0256x elapsed=0:01:24.74    \nframe=   67 fps=0.8 q=41.6 size=     256KiB time=00:00:02.16 bitrate= 968.1kbits/s speed=0.0254x elapsed=0:01:25.28    \nframe=   67 fps=0.8 q=41.6 size=     256KiB time=00:00:02.16 bitrate= 968.1kbits/s speed=0.0252x elapsed=0:01:25.81    \nframe=   69 fps=0.8 q=38.0 size=     256KiB time=00:00:02.23 bitrate= 939.2kbits/s speed=0.0259x elapsed=0:01:26.33    \nframe=   70 fps=0.8 q=41.3 size=     256KiB time=00:00:02.26 bitrate= 925.4kbits/s speed=0.0261x elapsed=0:01:26.86    \nframe=   70 fps=0.8 q=41.3 size=     256KiB time=00:00:02.26 bitrate= 925.4kbits/s speed=0.0259x elapsed=0:01:27.38    \nframe=   71 fps=0.8 q=43.6 size=     256KiB time=00:00:02.30 bitrate= 912.0kbits/s speed=0.0262x elapsed=0:01:27.91    \nframe=   71 fps=0.8 q=43.6 size=     256KiB time=00:00:02.30 bitrate= 912.0kbits/s speed=0.026x elapsed=0:01:28.42    \nframe=   71 fps=0.8 q=43.6 size=     256KiB time=00:00:02.30 bitrate= 912.0kbits/s speed=0.0259x elapsed=0:01:28.95    \nframe=   71 fps=0.8 q=43.6 size=     256KiB time=00:00:02.30 bitrate= 912.0kbits/s speed=0.0257x elapsed=0:01:29.50    \nframe=   72 fps=0.8 q=43.6 size=     256KiB time=00:00:02.33 bitrate= 898.9kbits/s speed=0.0259x elapsed=0:01:30.02    \nframe=   73 fps=0.8 q=38.2 size=     256KiB time=00:00:02.36 bitrate= 886.3kbits/s speed=0.0261x elapsed=0:01:30.55    \nframe=   74 fps=0.8 q=41.0 size=     256KiB time=00:00:02.40 bitrate= 874.0kbits/s speed=0.0263x elapsed=0:01:31.08    \nframe=   74 fps=0.8 q=41.0 size=     256KiB time=00:00:02.40 bitrate= 874.0kbits/s speed=0.0262x elapsed=0:01:31.60    \nframe=   75 fps=0.8 q=43.4 size=     256KiB time=00:00:02.43 bitrate= 862.0kbits/s speed=0.0264x elapsed=0:01:32.11    \nframe=   76 fps=0.8 q=43.3 size=     256KiB time=00:00:02.46 bitrate= 850.3kbits/s speed=0.0266x elapsed=0:01:32.64    \nframe=   76 fps=0.8 q=43.3 size=     256KiB time=00:00:02.46 bitrate= 850.3kbits/s speed=0.0265x elapsed=0:01:33.17    \nframe=   77 fps=0.8 q=37.8 size=     256KiB time=00:00:02.50 bitrate= 839.0kbits/s speed=0.0267x elapsed=0:01:33.71    \nframe=   78 fps=0.8 q=41.3 size=     256KiB time=00:00:02.53 bitrate= 828.0kbits/s speed=0.0269x elapsed=0:01:34.24    \nframe=   78 fps=0.8 q=41.3 size=     256KiB time=00:00:02.53 bitrate= 828.0kbits/s speed=0.0267x elapsed=0:01:34.82    \nframe=   78 fps=0.8 q=41.3 size=     256KiB time=00:00:02.53 bitrate= 828.0kbits/s speed=0.0266x elapsed=0:01:35.38    \nframe=   78 fps=0.8 q=41.3 size=     256KiB time=00:00:02.53 bitrate= 828.0kbits/s speed=0.0264x elapsed=0:01:35.90    \nframe=   78 fps=0.8 q=41.3 size=     256KiB time=00:00:02.53 bitrate= 828.0kbits/s speed=0.0263x elapsed=0:01:36.42    \nframe=   79 fps=0.8 q=43.6 size=     256KiB time=00:00:02.56 bitrate= 817.2kbits/s speed=0.0265x elapsed=0:01:36.95    \nframe=   80 fps=0.8 q=42.9 size=     256KiB time=00:00:02.60 bitrate= 806.7kbits/s speed=0.0267x elapsed=0:01:37.46    \nframe=   81 fps=0.8 q=38.1 size=     256KiB time=00:00:02.63 bitrate= 796.5kbits/s speed=0.0269x elapsed=0:01:37.99    \nframe=   82 fps=0.8 q=41.3 size=     256KiB time=00:00:02.66 bitrate= 786.6kbits/s speed=0.0271x elapsed=0:01:38.50    \nframe=   83 fps=0.8 q=43.4 size=     256KiB time=00:00:02.70 bitrate= 776.9kbits/s speed=0.0273x elapsed=0:01:39.02    \nframe=   84 fps=0.8 q=43.8 size=     256KiB time=00:00:02.73 bitrate= 767.4kbits/s speed=0.0275x elapsed=0:01:39.54    \nframe=   85 fps=0.8 q=37.9 size=     256KiB time=00:00:02.76 bitrate= 758.1kbits/s speed=0.0277x elapsed=0:01:40.05    \nframe=   87 fps=0.9 q=43.7 size=     256KiB time=00:00:02.83 bitrate= 740.3kbits/s speed=0.0282x elapsed=0:01:40.57    \nframe=   87 fps=0.9 q=43.7 size=     256KiB time=00:00:02.83 bitrate= 740.3kbits/s speed=0.028x elapsed=0:01:41.07    \nframe=   89 fps=0.9 q=43.3 size=     256KiB time=00:00:02.90 bitrate= 723.3kbits/s speed=0.0285x elapsed=0:01:41.60    \nframe=   90 fps=0.9 q=37.9 size=     256KiB time=00:00:02.93 bitrate= 715.1kbits/s speed=0.0287x elapsed=0:01:42.11    \nframe=   91 fps=0.9 q=41.8 size=     512KiB time=00:00:02.96 bitrate=1413.9kbits/s speed=0.0289x elapsed=0:01:42.64    \nframe=   92 fps=0.9 q=43.4 size=     512KiB time=00:00:03.00 bitrate=1398.2kbits/s speed=0.0291x elapsed=0:01:43.14    \nframe=   93 fps=0.9 q=43.4 size=     512KiB time=00:00:03.03 bitrate=1382.9kbits/s speed=0.0293x elapsed=0:01:43.67    \nframe=   94 fps=0.9 q=42.8 size=     512KiB time=00:00:03.06 bitrate=1367.8kbits/s speed=0.0294x elapsed=0:01:44.18    \nframe=   96 fps=0.9 q=40.9 size=     512KiB time=00:00:03.13 bitrate=1338.7kbits/s speed=0.0299x elapsed=0:01:44.70    \nframe=   96 fps=0.9 q=40.9 size=     512KiB time=00:00:03.13 bitrate=1338.7kbits/s speed=0.0298x elapsed=0:01:45.20    \nframe=   97 fps=0.9 q=42.8 size=     512KiB time=00:00:03.16 bitrate=1324.6kbits/s speed=0.03x elapsed=0:01:45.73    \nframe=   98 fps=0.9 q=42.7 size=     512KiB time=00:00:03.20 bitrate=1310.8kbits/s speed=0.0301x elapsed=0:01:46.23    \nframe=  100 fps=0.9 q=40.4 size=     512KiB time=00:00:03.26 bitrate=1284.1kbits/s speed=0.0306x elapsed=0:01:46.75    \nframe=  100 fps=0.9 q=40.4 size=     512KiB time=00:00:03.26 bitrate=1284.1kbits/s speed=0.0305x elapsed=0:01:47.27    \nframe=  101 fps=0.9 q=42.9 size=     512KiB time=00:00:03.30 bitrate=1271.1kbits/s speed=0.0306x elapsed=0:01:47.79    \nframe=  102 fps=0.9 q=42.5 size=     512KiB time=00:00:03.33 bitrate=1258.4kbits/s speed=0.0308x elapsed=0:01:48.30    \nframe=  104 fps=1.0 q=40.5 size=     512KiB time=00:00:03.40 bitrate=1233.7kbits/s speed=0.0312x elapsed=0:01:48.82    \nframe=  104 fps=1.0 q=40.5 size=     512KiB time=00:00:03.40 bitrate=1233.7kbits/s speed=0.0311x elapsed=0:01:49.33    \nframe=  106 fps=1.0 q=42.4 size=     512KiB time=00:00:03.46 bitrate=1210.0kbits/s speed=0.0316x elapsed=0:01:49.84    \nframe=  107 fps=1.0 q=37.8 size=     512KiB time=00:00:03.50 bitrate=1198.5kbits/s speed=0.0317x elapsed=0:01:50.37    \nframe=  108 fps=1.0 q=40.8 size=     512KiB time=00:00:03.53 bitrate=1187.2kbits/s speed=0.0319x elapsed=0:01:50.87    \nframe=  109 fps=1.0 q=43.1 size=     512KiB time=00:00:03.56 bitrate=1176.1kbits/s speed=0.032x elapsed=0:01:51.40    \nframe=  110 fps=1.0 q=43.3 size=     512KiB time=00:00:03.60 bitrate=1165.2kbits/s speed=0.0322x elapsed=0:01:51.90    \nframe=  110 fps=1.0 q=43.3 size=     512KiB time=00:00:03.60 bitrate=1165.2kbits/s speed=0.032x elapsed=0:01:52.43    \nframe=  110 fps=1.0 q=43.3 size=     512KiB time=00:00:03.60 bitrate=1165.2kbits/s speed=0.0319x elapsed=0:01:53.01    \nframe=  110 fps=1.0 q=43.3 size=     512KiB time=00:00:03.60 bitrate=1165.2kbits/s speed=0.0317x elapsed=0:01:53.57    \nframe=  112 fps=1.0 q=40.4 size=     512KiB time=00:00:03.66 bitrate=1144.0kbits/s speed=0.0321x elapsed=0:01:54.11    \nframe=  112 fps=1.0 q=40.4 size=     512KiB time=00:00:03.66 bitrate=1144.0kbits/s speed=0.032x elapsed=0:01:54.62    \nframe=  112 fps=1.0 q=40.4 size=     512KiB time=00:00:03.66 bitrate=1144.0kbits/s speed=0.0318x elapsed=0:01:55.14    \nframe=  112 fps=1.0 q=40.4 size=     512KiB time=00:00:03.66 bitrate=1144.0kbits/s speed=0.0317x elapsed=0:01:55.65    \nframe=  112 fps=1.0 q=40.4 size=     512KiB time=00:00:03.66 bitrate=1144.0kbits/s speed=0.0316x elapsed=0:01:56.17    \nframe=  112 fps=1.0 q=40.4 size=     512KiB time=00:00:03.66 bitrate=1144.0kbits/s speed=0.0314x elapsed=0:01:56.69    \nframe=  113 fps=1.0 q=42.7 size=     512KiB time=00:00:03.70 bitrate=1133.7kbits/s speed=0.0316x elapsed=0:01:57.22    \nframe=  113 fps=1.0 q=42.7 size=     512KiB time=00:00:03.70 bitrate=1133.7kbits/s speed=0.0314x elapsed=0:01:57.76    \nframe=  113 fps=1.0 q=42.7 size=     512KiB time=00:00:03.70 bitrate=1133.7kbits/s speed=0.0313x elapsed=0:01:58.35    \nframe=  113 fps=1.0 q=42.7 size=     512KiB time=00:00:03.70 bitrate=1133.7kbits/s speed=0.0311x elapsed=0:01:58.89    \nframe=  114 fps=1.0 q=42.0 size=     512KiB time=00:00:03.73 bitrate=1123.6kbits/s speed=0.0313x elapsed=0:01:59.45    \nframe=  114 fps=0.9 q=42.0 size=     512KiB time=00:00:03.73 bitrate=1123.6kbits/s speed=0.0311x elapsed=0:02:00.05    \nframe=  114 fps=0.9 q=42.0 size=     512KiB time=00:00:03.73 bitrate=1123.6kbits/s speed=0.0309x elapsed=0:02:00.63    \nframe=  114 fps=0.9 q=42.0 size=     512KiB time=00:00:03.73 bitrate=1123.6kbits/s speed=0.0308x elapsed=0:02:01.16    \nframe=  114 fps=0.9 q=42.0 size=     512KiB time=00:00:03.73 bitrate=1123.6kbits/s speed=0.0307x elapsed=0:02:01.71    \nframe=  114 fps=0.9 q=42.0 size=     512KiB time=00:00:03.73 bitrate=1123.6kbits/s speed=0.0305x elapsed=0:02:02.25    \nframe=  115 fps=0.9 q=37.8 size=     512KiB time=00:00:03.73 bitrate=1123.6kbits/s speed=0.0304x elapsed=0:02:02.78    \nframe=  115 fps=0.9 q=37.8 size=     512KiB time=00:00:03.76 bitrate=1113.6kbits/s speed=0.0305x elapsed=0:02:03.36    \nframe=  115 fps=0.9 q=37.8 size=     512KiB time=00:00:03.76 bitrate=1113.6kbits/s speed=0.0304x elapsed=0:02:03.91    \nframe=  116 fps=0.9 q=40.6 size=     512KiB time=00:00:03.80 bitrate=1103.9kbits/s speed=0.0305x elapsed=0:02:04.46    \nframe=  116 fps=0.9 q=40.6 size=     512KiB time=00:00:03.80 bitrate=1103.9kbits/s speed=0.0304x elapsed=0:02:05.02    \nframe=  116 fps=0.9 q=40.6 size=     512KiB time=00:00:03.80 bitrate=1103.9kbits/s speed=0.0303x elapsed=0:02:05.59    \nframe=  116 fps=0.9 q=40.6 size=     512KiB time=00:00:03.80 bitrate=1103.9kbits/s speed=0.0301x elapsed=0:02:06.17    \nframe=  116 fps=0.9 q=40.6 size=     512KiB time=00:00:03.80 bitrate=1103.9kbits/s speed=0.03x elapsed=0:02:06.71    \nframe=  116 fps=0.9 q=40.6 size=     512KiB time=00:00:03.80 bitrate=1103.9kbits/s speed=0.0299x elapsed=0:02:07.26    \nframe=  116 fps=0.9 q=40.6 size=     512KiB time=00:00:03.80 bitrate=1103.9kbits/s speed=0.0297x elapsed=0:02:07.82    \nframe=  116 fps=0.9 q=40.6 size=     512KiB time=00:00:03.80 bitrate=1103.9kbits/s speed=0.0296x elapsed=0:02:08.35    \nframe=  116 fps=0.9 q=40.6 size=     512KiB time=00:00:03.80 bitrate=1103.9kbits/s speed=0.0295x elapsed=0:02:08.86    \nframe=  117 fps=0.9 q=42.8 size=     512KiB time=00:00:03.83 bitrate=1094.3kbits/s speed=0.0296x elapsed=0:02:09.48    \nframe=  117 fps=0.9 q=42.8 size=     512KiB time=00:00:03.83 bitrate=1094.3kbits/s speed=0.0295x elapsed=0:02:10.00    \nframe=  117 fps=0.9 q=42.8 size=     512KiB time=00:00:03.83 bitrate=1094.3kbits/s speed=0.0294x elapsed=0:02:10.52    \nframe=  117 fps=0.9 q=42.8 size=     512KiB time=00:00:03.83 bitrate=1094.3kbits/s speed=0.0292x elapsed=0:02:11.09    \nframe=  117 fps=0.9 q=42.8 size=     512KiB time=00:00:03.83 bitrate=1094.3kbits/s speed=0.0291x elapsed=0:02:11.65    \nframe=  118 fps=0.9 q=42.5 size=     512KiB time=00:00:03.86 bitrate=1084.8kbits/s speed=0.0292x elapsed=0:02:12.23    \nframe=  118 fps=0.9 q=42.5 size=     512KiB time=00:00:03.86 bitrate=1084.8kbits/s speed=0.0291x elapsed=0:02:12.80    \nframe=  118 fps=0.9 q=42.5 size=     512KiB time=00:00:03.86 bitrate=1084.8kbits/s speed=0.029x elapsed=0:02:13.38    \nframe=  118 fps=0.9 q=42.5 size=     512KiB time=00:00:03.86 bitrate=1084.8kbits/s speed=0.0289x elapsed=0:02:13.98    \nframe=  118 fps=0.9 q=42.5 size=     512KiB time=00:00:03.86 bitrate=1084.8kbits/s speed=0.0287x elapsed=0:02:14.51    \nframe=  118 fps=0.9 q=42.5 size=     512KiB time=00:00:03.86 bitrate=1084.8kbits/s speed=0.0286x elapsed=0:02:15.02    \nframe=  119 fps=0.9 q=37.4 size=     512KiB time=00:00:03.90 bitrate=1075.6kbits/s speed=0.0288x elapsed=0:02:15.54    \nframe=  119 fps=0.9 q=37.4 size=     512KiB time=00:00:03.90 bitrate=1075.6kbits/s speed=0.0287x elapsed=0:02:16.09    \nframe=  120 fps=0.9 q=40.4 size=     512KiB time=00:00:03.93 bitrate=1066.4kbits/s speed=0.0288x elapsed=0:02:16.62    \nframe=  120 fps=0.9 q=40.4 size=     512KiB time=00:00:03.93 bitrate=1066.4kbits/s speed=0.0287x elapsed=0:02:17.17    \nframe=  120 fps=0.9 q=40.4 size=     512KiB time=00:00:03.93 bitrate=1066.4kbits/s speed=0.0286x elapsed=0:02:17.72    \nframe=  120 fps=0.9 q=40.4 size=     512KiB time=00:00:03.93 bitrate=1066.4kbits/s speed=0.0285x elapsed=0:02:18.24    \nframe=  120 fps=0.9 q=40.4 size=     512KiB time=00:00:03.93 bitrate=1066.4kbits/s speed=0.0283x elapsed=0:02:18.81    \nframe=  120 fps=0.9 q=40.4 size=     512KiB time=00:00:03.93 bitrate=1066.4kbits/s speed=0.0282x elapsed=0:02:19.34    \nframe=  121 fps=0.9 q=42.4 size=     512KiB time=00:00:03.96 bitrate=1057.5kbits/s speed=0.0284x elapsed=0:02:19.86    \nframe=  121 fps=0.9 q=42.4 size=     512KiB time=00:00:03.96 bitrate=1057.5kbits/s speed=0.0283x elapsed=0:02:20.39    \nframe=  121 fps=0.9 q=42.4 size=     512KiB time=00:00:03.96 bitrate=1057.5kbits/s speed=0.0281x elapsed=0:02:20.92    \nframe=  121 fps=0.9 q=42.4 size=     512KiB time=00:00:03.96 bitrate=1057.5kbits/s speed=0.028x elapsed=0:02:21.47    \nframe=  122 fps=0.9 q=42.5 size=     512KiB time=00:00:04.00 bitrate=1048.7kbits/s speed=0.0282x elapsed=0:02:22.01    \nframe=  122 fps=0.9 q=42.5 size=     512KiB time=00:00:04.00 bitrate=1048.7kbits/s speed=0.0281x elapsed=0:02:22.59    \nframe=  122 fps=0.9 q=42.5 size=     512KiB time=00:00:04.00 bitrate=1048.7kbits/s speed=0.0279x elapsed=0:02:23.15    \nframe=  122 fps=0.8 q=42.5 size=     512KiB time=00:00:04.00 bitrate=1048.7kbits/s speed=0.0278x elapsed=0:02:23.72    \nframe=  122 fps=0.8 q=42.5 size=     512KiB time=00:00:04.00 bitrate=1048.7kbits/s speed=0.0277x elapsed=0:02:24.26    \nframe=  123 fps=0.8 q=37.7 size=     512KiB time=00:00:04.03 bitrate=1040.0kbits/s speed=0.0278x elapsed=0:02:24.82    \nframe=  123 fps=0.8 q=37.7 size=     512KiB time=00:00:04.03 bitrate=1040.0kbits/s speed=0.0277x elapsed=0:02:25.35    \nframe=  123 fps=0.8 q=37.7 size=     512KiB time=00:00:04.03 bitrate=1040.0kbits/s speed=0.0276x elapsed=0:02:25.89    \nframe=  123 fps=0.8 q=37.7 size=     512KiB time=00:00:04.03 bitrate=1040.0kbits/s speed=0.0275x elapsed=0:02:26.41    \nframe=  123 fps=0.8 q=37.7 size=     512KiB time=00:00:04.03 bitrate=1040.0kbits/s speed=0.0274x elapsed=0:02:27.01    \nframe=  123 fps=0.8 q=37.7 size=     512KiB time=00:00:04.03 bitrate=1040.0kbits/s speed=0.0273x elapsed=0:02:27.65    \nframe=  123 fps=0.8 q=37.7 size=     512KiB time=00:00:04.03 bitrate=1040.0kbits/s speed=0.0272x elapsed=0:02:28.24    \nframe=  123 fps=0.8 q=37.7 size=     512KiB time=00:00:04.03 bitrate=1040.0kbits/s speed=0.0271x elapsed=0:02:28.85    \nframe=  123 fps=0.8 q=37.7 size=     512KiB time=00:00:04.03 bitrate=1040.0kbits/s speed=0.027x elapsed=0:02:29.47    \nframe=  123 fps=0.8 q=37.7 size=     512KiB time=00:00:04.03 bitrate=1040.0kbits/s speed=0.0269x elapsed=0:02:30.06    \nframe=  124 fps=0.8 q=40.5 size=     512KiB time=00:00:04.06 bitrate=1031.5kbits/s speed=0.027x elapsed=0:02:30.62    \nframe=  124 fps=0.8 q=40.5 size=     512KiB time=00:00:04.06 bitrate=1031.5kbits/s speed=0.0269x elapsed=0:02:31.14    \nframe=  124 fps=0.8 q=40.5 size=     512KiB time=00:00:04.06 bitrate=1031.5kbits/s speed=0.0268x elapsed=0:02:31.69    \nframe=  124 fps=0.8 q=40.5 size=     512KiB time=00:00:04.06 bitrate=1031.5kbits/s speed=0.0267x elapsed=0:02:32.20    \nframe=  124 fps=0.8 q=40.5 size=     512KiB time=00:00:04.06 bitrate=1031.5kbits/s speed=0.0266x elapsed=0:02:32.74    \nframe=  124 fps=0.8 q=40.5 size=     512KiB time=00:00:04.06 bitrate=1031.5kbits/s speed=0.0265x elapsed=0:02:33.32    \nframe=  124 fps=0.8 q=40.5 size=     512KiB time=00:00:04.06 bitrate=1031.5kbits/s speed=0.0264x elapsed=0:02:33.90    \nframe=  125 fps=0.8 q=42.6 size=     512KiB time=00:00:04.10 bitrate=1023.1kbits/s speed=0.0265x elapsed=0:02:34.45    \nframe=  125 fps=0.8 q=42.6 size=     512KiB time=00:00:04.10 bitrate=1023.1kbits/s speed=0.0264x elapsed=0:02:35.04    \nframe=  125 fps=0.8 q=42.6 size=     512KiB time=00:00:04.10 bitrate=1023.1kbits/s speed=0.0263x elapsed=0:02:35.62    \nframe=  125 fps=0.8 q=42.6 size=     512KiB time=00:00:04.10 bitrate=1023.1kbits/s speed=0.0262x elapsed=0:02:36.20    \nframe=  126 fps=0.8 q=41.7 size=     512KiB time=00:00:04.13 bitrate=1014.8kbits/s speed=0.0264x elapsed=0:02:36.78    \nframe=  126 fps=0.8 q=41.7 size=     512KiB time=00:00:04.13 bitrate=1014.8kbits/s speed=0.0263x elapsed=0:02:37.29    \nframe=  126 fps=0.8 q=41.7 size=     512KiB time=00:00:04.13 bitrate=1014.8kbits/s speed=0.0262x elapsed=0:02:37.84    \nframe=  126 fps=0.8 q=41.7 size=     512KiB time=00:00:04.13 bitrate=1014.8kbits/s speed=0.0261x elapsed=0:02:38.42    \nframe=  126 fps=0.8 q=41.7 size=     512KiB time=00:00:04.13 bitrate=1014.8kbits/s speed=0.026x elapsed=0:02:38.95    \nframe=  126 fps=0.8 q=41.7 size=     512KiB time=00:00:04.13 bitrate=1014.8kbits/s speed=0.0259x elapsed=0:02:39.47    \nframe=  126 fps=0.8 q=41.7 size=     512KiB time=00:00:04.13 bitrate=1014.8kbits/s speed=0.0258x elapsed=0:02:40.01    \nframe=  126 fps=0.8 q=41.7 size=     512KiB time=00:00:04.13 bitrate=1014.8kbits/s speed=0.0257x elapsed=0:02:40.55    \nframe=  126 fps=0.8 q=41.7 size=     512KiB time=00:00:04.13 bitrate=1014.8kbits/s speed=0.0256x elapsed=0:02:41.14    \nframe=  126 fps=0.8 q=41.7 size=     512KiB time=00:00:04.13 bitrate=1014.8kbits/s speed=0.0256x elapsed=0:02:41.70    \nframe=  126 fps=0.8 q=41.7 size=     512KiB time=00:00:04.13 bitrate=1014.8kbits/s speed=0.0255x elapsed=0:02:42.33    \nframe=  127 fps=0.8 q=37.6 size=     512KiB time=00:00:04.16 bitrate=1006.7kbits/s speed=0.0256x elapsed=0:02:42.91    \nframe=  127 fps=0.8 q=37.6 size=     512KiB time=00:00:04.16 bitrate=1006.7kbits/s speed=0.0255x elapsed=0:02:43.42    \nframe=  127 fps=0.8 q=37.6 size=     512KiB time=00:00:04.16 bitrate=1006.7kbits/s speed=0.0254x elapsed=0:02:43.95    \nframe=  127 fps=0.8 q=37.6 size=     512KiB time=00:00:04.16 bitrate=1006.7kbits/s speed=0.0253x elapsed=0:02:44.48    \nframe=  128 fps=0.8 q=40.4 size=     512KiB time=00:00:04.20 bitrate= 998.7kbits/s speed=0.0254x elapsed=0:02:45.03    \nframe=  128 fps=0.8 q=40.4 size=     512KiB time=00:00:04.20 bitrate= 998.7kbits/s speed=0.0254x elapsed=0:02:45.57    \nframe=  128 fps=0.8 q=40.4 size=     512KiB time=00:00:04.20 bitrate= 998.7kbits/s speed=0.0253x elapsed=0:02:46.13    \nframe=  128 fps=0.8 q=40.4 size=     512KiB time=00:00:04.20 bitrate= 998.7kbits/s speed=0.0252x elapsed=0:02:46.66    \nframe=  128 fps=0.8 q=40.4 size=     512KiB time=00:00:04.20 bitrate= 998.7kbits/s speed=0.0251x elapsed=0:02:47.19    \nframe=  129 fps=0.8 q=42.5 size=     512KiB time=00:00:04.23 bitrate= 990.9kbits/s speed=0.0252x elapsed=0:02:47.75    \nframe=  129 fps=0.8 q=42.5 size=     512KiB time=00:00:04.23 bitrate= 990.9kbits/s speed=0.0252x elapsed=0:02:48.28    \nframe=  129 fps=0.8 q=42.5 size=     512KiB time=00:00:04.23 bitrate= 990.9kbits/s speed=0.0251x elapsed=0:02:48.81    \nframe=  130 fps=0.8 q=42.0 size=     512KiB time=00:00:04.26 bitrate= 983.1kbits/s speed=0.0252x elapsed=0:02:49.34    \nframe=  130 fps=0.8 q=42.0 size=     512KiB time=00:00:04.26 bitrate= 983.1kbits/s speed=0.0251x elapsed=0:02:49.86    \nframe=  130 fps=0.8 q=42.0 size=     512KiB time=00:00:04.26 bitrate= 983.1kbits/s speed=0.025x elapsed=0:02:50.39    \nframe=  130 fps=0.8 q=42.0 size=     512KiB time=00:00:04.26 bitrate= 983.1kbits/s speed=0.025x elapsed=0:02:50.96    \nframe=  131 fps=0.8 q=37.5 size=     512KiB time=00:00:04.30 bitrate= 975.5kbits/s speed=0.0251x elapsed=0:02:51.50    \nframe=  131 fps=0.8 q=37.5 size=     512KiB time=00:00:04.30 bitrate= 975.5kbits/s speed=0.025x elapsed=0:02:52.03    \nframe=  131 fps=0.8 q=37.5 size=     512KiB time=00:00:04.30 bitrate= 975.5kbits/s speed=0.0249x elapsed=0:02:52.55    \nframe=  131 fps=0.8 q=37.5 size=     512KiB time=00:00:04.30 bitrate= 975.5kbits/s speed=0.0248x elapsed=0:02:53.09    \nframe=  131 fps=0.8 q=37.5 size=     512KiB time=00:00:04.30 bitrate= 975.5kbits/s speed=0.0248x elapsed=0:02:53.63    \nframe=  132 fps=0.8 q=40.1 size=     768KiB time=00:00:04.33 bitrate=1452.0kbits/s speed=0.0249x elapsed=0:02:54.19    \nframe=  133 fps=0.8 q=41.8 size=     768KiB time=00:00:04.36 bitrate=1440.9kbits/s speed=0.025x elapsed=0:02:54.76    \nframe=  133 fps=0.8 q=41.8 size=     768KiB time=00:00:04.36 bitrate=1440.9kbits/s speed=0.0249x elapsed=0:02:55.29    \nframe=  133 fps=0.8 q=41.8 size=     768KiB time=00:00:04.36 bitrate=1440.9kbits/s speed=0.0248x elapsed=0:02:55.83    \nframe=  133 fps=0.8 q=41.8 size=     768KiB time=00:00:04.36 bitrate=1440.9kbits/s speed=0.0248x elapsed=0:02:56.38    \nframe=  133 fps=0.8 q=41.8 size=     768KiB time=00:00:04.36 bitrate=1440.9kbits/s speed=0.0247x elapsed=0:02:56.99    \nframe=  133 fps=0.7 q=41.8 size=     768KiB time=00:00:04.36 bitrate=1440.9kbits/s speed=0.0246x elapsed=0:02:57.55    \nframe=  133 fps=0.7 q=41.8 size=     768KiB time=00:00:04.36 bitrate=1440.9kbits/s speed=0.0245x elapsed=0:02:58.15    \nframe=  134 fps=0.7 q=41.6 size=     768KiB time=00:00:04.40 bitrate=1430.0kbits/s speed=0.0246x elapsed=0:02:58.76    \nframe=  134 fps=0.7 q=41.6 size=     768KiB time=00:00:04.40 bitrate=1430.0kbits/s speed=0.0245x elapsed=0:02:59.30    \nframe=  134 fps=0.7 q=41.6 size=     768KiB time=00:00:04.40 bitrate=1430.0kbits/s speed=0.0245x elapsed=0:02:59.89    \nframe=  135 fps=0.7 q=37.6 size=     768KiB time=00:00:04.43 bitrate=1419.2kbits/s speed=0.0246x elapsed=0:03:00.41    \nframe=  135 fps=0.7 q=37.6 size=     768KiB time=00:00:04.43 bitrate=1419.2kbits/s speed=0.0245x elapsed=0:03:00.93    \nframe=  136 fps=0.7 q=39.8 size=     768KiB time=00:00:04.46 bitrate=1408.6kbits/s speed=0.0246x elapsed=0:03:01.44    \nframe=  136 fps=0.7 q=39.8 size=     768KiB time=00:00:04.46 bitrate=1408.6kbits/s speed=0.0245x elapsed=0:03:01.96    \nframe=  136 fps=0.7 q=39.8 size=     768KiB time=00:00:04.46 bitrate=1408.6kbits/s speed=0.0245x elapsed=0:03:02.48    \nframe=  138 fps=0.8 q=40.7 size=     768KiB time=00:00:04.53 bitrate=1387.9kbits/s speed=0.0248x elapsed=0:03:03.02    \nframe=  138 fps=0.8 q=40.7 size=     768KiB time=00:00:04.53 bitrate=1387.9kbits/s speed=0.0247x elapsed=0:03:03.55    \nframe=  138 fps=0.7 q=40.7 size=     768KiB time=00:00:04.53 bitrate=1387.9kbits/s speed=0.0246x elapsed=0:03:04.07    \nframe=  139 fps=0.8 q=37.6 size=     768KiB time=00:00:04.56 bitrate=1377.8kbits/s speed=0.0247x elapsed=0:03:04.59    \nframe=  139 fps=0.8 q=37.6 size=     768KiB time=00:00:04.56 bitrate=1377.8kbits/s speed=0.0247x elapsed=0:03:05.15    \nframe=  139 fps=0.7 q=37.6 size=     768KiB time=00:00:04.56 bitrate=1377.8kbits/s speed=0.0246x elapsed=0:03:05.70    \nframe=  140 fps=0.8 q=39.4 size=     768KiB time=00:00:04.60 bitrate=1367.8kbits/s speed=0.0247x elapsed=0:03:06.21    \nframe=  140 fps=0.7 q=39.4 size=     768KiB time=00:00:04.60 bitrate=1367.8kbits/s speed=0.0246x elapsed=0:03:06.74    \nframe=  140 fps=0.7 q=39.4 size=     768KiB time=00:00:04.60 bitrate=1367.8kbits/s speed=0.0246x elapsed=0:03:07.26    \nframe=  140 fps=0.7 q=39.4 size=     768KiB time=00:00:04.60 bitrate=1367.8kbits/s speed=0.0245x elapsed=0:03:07.80    \nframe=  140 fps=0.7 q=39.4 size=     768KiB time=00:00:04.60 bitrate=1367.8kbits/s speed=0.0244x elapsed=0:03:08.34    \nframe=  140 fps=0.7 q=39.4 size=     768KiB time=00:00:04.60 bitrate=1367.8kbits/s speed=0.0244x elapsed=0:03:08.86    \nframe=  141 fps=0.7 q=40.8 size=     768KiB time=00:00:04.63 bitrate=1357.9kbits/s speed=0.0245x elapsed=0:03:09.38    \nframe=  141 fps=0.7 q=40.8 size=     768KiB time=00:00:04.63 bitrate=1357.9kbits/s speed=0.0244x elapsed=0:03:09.91    \nframe=  141 fps=0.7 q=40.8 size=     768KiB time=00:00:04.63 bitrate=1357.9kbits/s speed=0.0243x elapsed=0:03:10.46    \nframe=  143 fps=0.7 q=37.6 size=     768KiB time=00:00:04.70 bitrate=1338.7kbits/s speed=0.0246x elapsed=0:03:10.99    \nframe=  144 fps=0.8 q=38.8 size=     768KiB time=00:00:04.73 bitrate=1329.3kbits/s speed=0.0247x elapsed=0:03:11.52    \nframe=  144 fps=0.7 q=38.8 size=     768KiB time=00:00:04.73 bitrate=1329.3kbits/s speed=0.0246x elapsed=0:03:12.06    \nframe=  144 fps=0.7 q=38.8 size=     768KiB time=00:00:04.73 bitrate=1329.3kbits/s speed=0.0246x elapsed=0:03:12.60    \nframe=  144 fps=0.7 q=38.8 size=     768KiB time=00:00:04.73 bitrate=1329.3kbits/s speed=0.0245x elapsed=0:03:13.11    \nframe=  144 fps=0.7 q=38.8 size=     768KiB time=00:00:04.73 bitrate=1329.3kbits/s speed=0.0244x elapsed=0:03:13.63    \nframe=  145 fps=0.7 q=39.1 size=     768KiB time=00:00:04.76 bitrate=1320.0kbits/s speed=0.0245x elapsed=0:03:14.16    \nframe=  145 fps=0.7 q=39.1 size=     768KiB time=00:00:04.76 bitrate=1320.0kbits/s speed=0.0245x elapsed=0:03:14.67    \nframe=  145 fps=0.7 q=39.1 size=     768KiB time=00:00:04.76 bitrate=1320.0kbits/s speed=0.0244x elapsed=0:03:15.21    \nframe=  145 fps=0.7 q=39.1 size=     768KiB time=00:00:04.76 bitrate=1320.0kbits/s speed=0.0244x elapsed=0:03:15.73    \nframe=  145 fps=0.7 q=39.1 size=     768KiB time=00:00:04.76 bitrate=1320.0kbits/s speed=0.0243x elapsed=0:03:16.27    \nframe=  145 fps=0.7 q=39.1 size=     768KiB time=00:00:04.76 bitrate=1320.0kbits/s speed=0.0242x elapsed=0:03:16.81    \nframe=  146 fps=0.7 q=39.7 size=     768KiB time=00:00:04.80 bitrate=1310.8kbits/s speed=0.0243x elapsed=0:03:17.35    \nframe=  147 fps=0.7 q=39.6 size=     768KiB time=00:00:04.83 bitrate=1301.8kbits/s speed=0.0244x elapsed=0:03:17.86    \nframe=  148 fps=0.7 q=36.7 size=     768KiB time=00:00:04.86 bitrate=1292.8kbits/s speed=0.0245x elapsed=0:03:18.37    \nframe=  148 fps=0.7 q=36.7 size=     768KiB time=00:00:04.86 bitrate=1292.8kbits/s speed=0.0245x elapsed=0:03:18.90    \n[mp4 @ 00000189527d9740] Starting second pass: moving the moov atom to the beginning of the file\n[out#0/mp4 @ 00000189527cab00] video:889KiB audio:0KiB subtitle:0KiB other streams:0KiB global headers:2KiB muxing overhead: 0.581179%\nframe=  150 fps=0.8 q=37.9 Lsize=     894KiB time=00:00:04.93 bitrate=1484.0kbits/s speed=0.0247x elapsed=0:03:19.36    \nx265 [info]: frame I:      1, Avg QP:38.84  kb/s: 9616.56 \nx265 [info]: frame P:     37, Avg QP:38.59  kb/s: 4260.23 \nx265 [info]: frame B:    112, Avg QP:42.92  kb/s: 455.19  \nx265 [info]: Weighted P-Frames: Y:13.5% UV:13.5%\n\nencoded 150 frames in 198.75s (0.75 fps), 1454.84 kb/s, Avg QP:41.83\n",
  "seconds": 199.88983178138733,
  "probe_out": {}
}